<?xml version="1.0" encoding="utf-8"?>
<?xml-stylesheet type="text/xsl" href="rss1.xsl"?>
<rss version="2.0" xmlns:atom="http://www.w3.org/2005/Atom" xmlns:content="http://purl.org/rss/1.0/modules/content/" xmlns:dc="http://purl.org/dc/elements/1.1/" xmlns:media="http://search.yahoo.com/mrss/">
<channel>
 <title>Getty</title>
 <link>http://www.gettyimg.com/</link>
 <atom:link href="http://www.gettyimg.com/" rel="self" type="application/rss+xml" />

 
                <item>
                <title><![CDATA[【Music Videos】Ace Of Base - Beautiful Life (1080p 5.1) (Clean)]]></title>
                <link><![CDATA[https://sharemania.us/threads/ace-of-base-beautiful-life-1080p-5-1-clean.237306/]]></link>
                <description><![CDATA[<article>
<blockquote class="messageText SelectQuoteContainer ugc baseHtml">
<img src="https://i.ibb.co/RySfzhQ/Ace-Of-Base-Beautiful-Life-1080p-5-1-mp4-thumbs-2024-02-08-21-25-33.jpg" class="bbCodeImage LbImage" alt="[​IMG]" data-url="https://i.ibb.co/RySfzhQ/Ace-Of-Base-Beautiful-Life-1080p-5-1-mp4-thumbs-2024-02-08-21-25-33.jpg" style=""> <br>
<br>
<div class="ToggleTriggerAnchor bbCodeSpoilerContainer">
<button type="button" class="button bbCodeSpoilerButton ToggleTrigger Tooltip JsOnly" data-target="> .SpoilerTarget"><span>Spoiler: <span class="SpoilerTitle">MediaInfo</span></span></button>
<div class="SpoilerTarget bbCodeSpoilerText">Ace Of Base - Beautiful Life (1080p 5.1).mp4<br>
Format : MPEG-4<br>
Format profile : Base Media / Version 2<br>
Codec ID : mp42 (mp42/mp41)<br>
File size : 271 MiB<br>
Duration : 3 min 40 s<br>
Overall bit rate mode : Variable<br>
Overall bit rate : 10.3 Mb/s<br>
Frame rate : 30.000 FPS<br>
Encoded date : 2024-02-09 00:11:22 UTC<br>
Tagged date : 2024-02-09 00:14:04 UTC<br>
TIM : 00:00:00:00<br>
TSC : 30<br>
TSZ : 1<br>
<br>
Video<br>
ID : 1<br>
Format : AVC<br>
Format/Info : Advanced Video Codec<br>
Format profile : Main@L4.1<br>
Format settings : CABAC / 4 Ref Frames<br>
Format settings, CABAC : Yes<br>
Format settings, Reference : 4 frames<br>
Codec ID : avc1<br>
Codec ID/Info : Advanced Video Coding<br>
Duration : 3 min 40 s<br>
Bit rate : 9 986 kb/s<br>
Width : 1 440 pixels<br>
Height : 1 080 pixels<br>
Display aspect ratio : 4:3<br>
Frame rate mode : Constant<br>
Frame rate : 30.000 FPS<br>
Color space : YUV<br>
Chroma subsampling : 4:2:0<br>
Bit depth : 8 bits<br>
Scan type : Progressive<br>
Bits/(Pixel*Frame) : 0.214<br>
Stream size : 263 MiB (97%)<br>
Language : English<br>
Encoded date : 2024-02-09 00:11:23 UTC<br>
Tagged date : 2024-02-09 00:11:23 UTC<br>
Color range : Limited<br>
Color primaries : BT.709<br>
Transfer characteristics : BT.709<br>
Matrix coefficients : BT.709<br>
Codec configuration box : avcC<br>
<br>
Audio<br>
ID : 2<br>
Format : AAC LC<br>
Format/Info : Advanced Audio Codec Low Complexity<br>
Codec ID : mp4a-40-2<br>
Duration : 3 min 40 s<br>
Source duration : 3 min 40 s<br>
Bit rate mode : Variable<br>
Bit rate : 317 kb/s<br>
Maximum bit rate : 1 283 kb/s<br>
Channel(s) : 6 channels<br>
Channel layout : C L R Ls Rs LFE<br>
Sampling rate : 48.0 kHz<br>
Frame rate : 46.875 FPS (1024 SPF)<br>
Compression mode : Lossy<br>
Stream size : 8.34 MiB (3%)<br>
Source stream size : 8.34 MiB (3%)<br>
Language : English<br>
Encoded date : 2024-02-09 00:11:23 UTC<br>
Tagged date : 2024-02-09 00:11:23 UTC</div>
</div><br>
<div class="bbCodeBlock bbCodeVfcHH HiddenContent">
<div class="attribution type">Hidden Content:</div>
<blockquote>You must reply before you can see the hidden data contained here.</blockquote>
</div>
<div class="messageTextEndMarker">&nbsp;</div>
</blockquote>
</article>]]></description>
                <author><![CDATA[DJ-RoGeRs-BS]]></author>
                </item>

                
                <item>
                <title><![CDATA[【Requests】[REQ AUD] - MAX- Stupid in Love (Feat Huh Yunjin of LeSserafim)]]></title>
                <link><![CDATA[https://sharemania.us/threads/max-stupid-in-love-feat-huh-yunjin-of-lesserafim.237307/]]></link>
                <description><![CDATA[<article>
<blockquote class="messageText SelectQuoteContainer ugc baseHtml">
Hi, if anyone has this song in either lossless or FLAC? Anything better than spotify rip<br>
<span data-s9e-mediaembed="spotify" style="display:inline-block;width:100%;max-width:320px"><span style="display:block;overflow:hidden;position:relative;padding-bottom:125%;padding-bottom:calc(100% + 80px)"><iframe allow="encrypted-media" allowfullscreen="" loading="lazy" scrolling="no" src="https://open.spotify.com/embed/album/2JvE7wdlDjKxadK7Y95xpQ" style="border:0;height:100%;left:0;position:absolute;width:100%"></iframe></span></span>
<div class="messageTextEndMarker">&nbsp;</div>
</blockquote>
</article>]]></description>
                <author><![CDATA[Pootpoot]]></author>
                </item>

                
                <item>
                <title><![CDATA[【Requests】[REQ AUD] - Can someone rip this track in dolby atmos from AM or stems?]]></title>
                <link><![CDATA[https://sharemania.us/threads/can-someone-rip-this-track-in-dolby-atmos-from-am-or-stems.237308/]]></link>
                <description><![CDATA[<article>
<blockquote class="messageText SelectQuoteContainer ugc baseHtml">
thx in advance<br>
<br>
<a href="https://music.apple.com/us/album/recadin-no-espelho/1728286446?i=1728286449" target="_blank" class="externalLink" rel="nofollow">https://music.apple.com/us/album/recadin-no-espelho/1728286446?i=1728286449</a>
<div class="messageTextEndMarker">&nbsp;</div>
</blockquote>
</article>]]></description>
                <author><![CDATA[thekiller]]></author>
                </item>

                
                <item>
                <title><![CDATA[【Requests】[REQ AUD] - Kylie Minogue - Put Yourself In My Place (Radio Edit)]]></title>
                <link><![CDATA[https://sharemania.us/threads/kylie-minogue-put-yourself-in-my-place-radio-edit.237309/]]></link>
                <description><![CDATA[<article>
<blockquote class="messageText SelectQuoteContainer ugc baseHtml">
Hi everyone, someone has the Radio Edit of Put Yourself In My Place by Kylie Minogue, it's from the CD1 of the single (it's different from the radio mix that is 4:10 and the radio edit it's 3:37)<br>
<br>
here's a reference: <a href="https://www.discogs.com/release/611360-Kylie-Minogue-Put-Yourself-In-My-Place" target="_blank" class="externalLink" rel="nofollow">https://www.discogs.com/release/611360-Kylie-Minogue-Put-Yourself-In-My-Place</a><br>
<br>
Thanks <img src="styles/default/xenforo/smilies/big_smile-48.png" class="mceSmilie" alt=":)" title="Smile    :)">
<div class="messageTextEndMarker">&nbsp;</div>
</blockquote>
</article>]]></description>
                <author><![CDATA[filipecroft2022]]></author>
                </item>

                </channel></rss>